<svg width="48" height="48" viewBox="0 0 48 48" fill="none" xmlns="http://www.w3.org/2000/svg">
<g clip-path="url(#clip0_758_18)">
<path d="M24 12C26.22 12 28 10.2 28 8C28 7.24 27.8 6.54 27.42 5.94L24 0L20.58 5.94C20.2 6.54 20 7.24 20 8C20 10.2 21.8 12 24 12ZM33.2 31.98L31.06 29.84L28.9 31.98C26.3 34.58 21.74 34.6 19.12 31.98L16.98 29.84L14.8 31.98C13.5 33.28 11.76 34 9.92 34C8.46 34 7.12 33.54 6 32.78V42C6 43.1 6.9 44 8 44H40C41.1 44 42 43.1 42 42V32.78C40.88 33.54 39.54 34 38.08 34C36.24 34 34.5 33.28 33.2 31.98ZM36 18H26V14H22V18H12C8.68 18 6 20.68 6 24V27.08C6 29.24 7.76 31 9.92 31C10.96 31 11.96 30.6 12.68 29.86L16.96 25.6L21.22 29.86C22.7 31.34 25.28 31.34 26.76 29.86L31.04 25.6L35.3 29.86C36.04 30.6 37.02 31 38.06 31C40.22 31 41.98 29.24 41.98 27.08V24C42 20.68 39.32 18 36 18Z" fill="#124966"/>
</g>
<defs>
<clipPath id="clip0_758_18">
<rect width="48" height="48" fill="white"/>
</clipPath>
</defs>
</svg>
