<svg width="48" height="48" viewBox="0 0 48 48" fill="none" xmlns="http://www.w3.org/2000/svg">
<path d="M10 42C9.43333 42 8.95833 41.8083 8.575 41.425C8.19167 41.0417 8 40.5667 8 40V32C8 30.9 8.39167 29.9583 9.175 29.175C9.95833 28.3917 10.9 28 12 28H36C37.1 28 38.0417 28.3917 38.825 29.175C39.6083 29.9583 40 30.9 40 32V40C40 40.5667 39.8083 41.0417 39.425 41.425C39.0417 41.8083 38.5667 42 38 42H10ZM18 26C15.2333 26 12.875 25.025 10.925 23.075C8.975 21.125 8 18.7667 8 16C8 13.2333 8.975 10.875 10.925 8.925C12.875 6.975 15.2333 6 18 6H30C32.7667 6 35.125 6.975 37.075 8.925C39.025 10.875 40 13.2333 40 16C40 18.7667 39.025 21.125 37.075 23.075C35.125 25.025 32.7667 26 30 26H18ZM18 18C18.5667 18 19.0417 17.8083 19.425 17.425C19.8083 17.0417 20 16.5667 20 16C20 15.4333 19.8083 14.9583 19.425 14.575C19.0417 14.1917 18.5667 14 18 14C17.4333 14 16.9583 14.1917 16.575 14.575C16.1917 14.9583 16 15.4333 16 16C16 16.5667 16.1917 17.0417 16.575 17.425C16.9583 17.8083 17.4333 18 18 18ZM30 18C30.5667 18 31.0417 17.8083 31.425 17.425C31.8083 17.0417 32 16.5667 32 16C32 15.4333 31.8083 14.9583 31.425 14.575C31.0417 14.1917 30.5667 14 30 14C29.4333 14 28.9583 14.1917 28.575 14.575C28.1917 14.9583 28 15.4333 28 16C28 16.5667 28.1917 17.0417 28.575 17.425C28.9583 17.8083 29.4333 18 30 18Z" fill="white"/>
</svg>
